# xmcd CD database file
#
# Track frame offsets:
#	187
#	17212
#	29662
#	34565
#	55500
#	72452
#	88820
#	100717
#	114067
#	120957
#	126985
#	137262
#	149942
#	161202
#	162710
#	172345
#	177942
#	200950
#	210150
#	216585
#
# Disc length: 3129 seconds
#
# Revision: 2
# Processed by: cddbd v1.5.2PL0 Copyright (c) Steve Scherf et al.
# Submitted via: CDex 1.70beta3
#
DISCID=310c3714
DTITLE=渡辺俊幸 - 太陽の勇者ファイバード　オリジナル・サウンドトラック Vol.2
DYEAR=1900
DGENRE=Anime
TTITLE0=天野世界平和合唱隊/Ｆｉｇｈｂｉｒｄ！
TTITLE1=しのびよる悪の影
TTITLE2=スーパーガーディオン
TTITLE3=やすらぎのひととき
TTITLE4=勇太郎の大失敗
TTITLE5=暗闇の敵
TTITLE6=天野博士奮闘す
TTITLE7=佐津田刑事
TTITLE8=故郷の星
TTITLE9=大空へ
TTITLE10=波状攻撃
TTITLE11=悲しみをふきとばせ
TTITLE12=ケンタの大冒険
TTITLE13=神代知衣／ドラジャンシンガーズ/ドラジャンヌードルＣｍソング
TTITLE14=デビルの塔
TTITLE15=グランバード
TTITLE16=三獣合体ドライアス
TTITLE17=グレイトファイバード
TTITLE18=君の瞳の中に…
TTITLE19=佐藤幸世/遠い故郷
EXTD=
EXTT0=
EXTT1=
EXTT2=
EXTT3=
EXTT4=
EXTT5=
EXTT6=
EXTT7=
EXTT8=
EXTT9=
EXTT10=
EXTT11=
EXTT12=
EXTT13=
EXTT14=
EXTT15=
EXTT16=
EXTT17=
EXTT18=
EXTT19=
PLAYORDER=
